<mxfile host="app.diagrams.net" modified="2021-12-12T09:08:27.447Z" agent="5.0 (Windows NT 10.0; Win64; x64) AppleWebKit/537.36 (KHTML, like Gecko) Chrome/96.0.4664.93 Safari/537.36" etag="9z08LYExi8a1Q4eq49-y" version="15.9.4" type="github">
  <diagram id="g2xU_Z2A_O6ak-y5bv7i" name="Page-1">
    <mxGraphModel dx="865" dy="456" grid="1" gridSize="10" guides="1" tooltips="1" connect="1" arrows="1" fold="1" page="1" pageScale="1" pageWidth="827" pageHeight="1169" math="0" shadow="0">
      <root>
        <mxCell id="0" />
        <mxCell id="1" parent="0" />
        <mxCell id="PaBXmyS8WKfqIy4uAy_5-30" value="" style="ellipse;whiteSpace=wrap;html=1;" vertex="1" parent="1">
          <mxGeometry x="25" y="240" width="310" height="160" as="geometry" />
        </mxCell>
        <mxCell id="PaBXmyS8WKfqIy4uAy_5-18" value="" style="ellipse;whiteSpace=wrap;html=1;" vertex="1" parent="1">
          <mxGeometry x="400" y="240" width="310" height="160" as="geometry" />
        </mxCell>
        <mxCell id="PaBXmyS8WKfqIy4uAy_5-4" value="Main thread" style="text;html=1;strokeColor=none;fillColor=none;align=center;verticalAlign=middle;whiteSpace=wrap;rounded=0;" vertex="1" parent="1">
          <mxGeometry x="120" width="120" height="30" as="geometry" />
        </mxCell>
        <mxCell id="PaBXmyS8WKfqIy4uAy_5-7" value="" style="shape=curlyBracket;whiteSpace=wrap;html=1;rounded=1;" vertex="1" parent="1">
          <mxGeometry x="420" y="40" width="20" height="160" as="geometry" />
        </mxCell>
        <mxCell id="PaBXmyS8WKfqIy4uAy_5-9" value="Thread 1" style="text;html=1;strokeColor=none;fillColor=none;align=center;verticalAlign=middle;whiteSpace=wrap;rounded=0;" vertex="1" parent="1">
          <mxGeometry x="480" width="120" height="30" as="geometry" />
        </mxCell>
        <mxCell id="PaBXmyS8WKfqIy4uAy_5-10" value="work_thread" style="rounded=1;whiteSpace=wrap;html=1;fillColor=#ffe6cc;strokeColor=#d79b00;" vertex="1" parent="1">
          <mxGeometry x="135" y="305" width="90" height="30" as="geometry" />
        </mxCell>
        <mxCell id="PaBXmyS8WKfqIy4uAy_5-17" value="timer" style="rounded=1;whiteSpace=wrap;html=1;fillColor=#fff2cc;strokeColor=#d6b656;" vertex="1" parent="1">
          <mxGeometry x="450" y="280" width="76" height="30" as="geometry" />
        </mxCell>
        <mxCell id="PaBXmyS8WKfqIy4uAy_5-52" style="edgeStyle=orthogonalEdgeStyle;rounded=0;orthogonalLoop=1;jettySize=auto;html=1;exitX=0.5;exitY=1;exitDx=0;exitDy=0;entryX=0.5;entryY=0;entryDx=0;entryDy=0;" edge="1" parent="1" source="PaBXmyS8WKfqIy4uAy_5-33" target="PaBXmyS8WKfqIy4uAy_5-35">
          <mxGeometry relative="1" as="geometry" />
        </mxCell>
        <mxCell id="PaBXmyS8WKfqIy4uAy_5-33" value="QTimer::timerout" style="rounded=0;whiteSpace=wrap;html=1;fillColor=#dae8fc;strokeColor=#6c8ebf;" vertex="1" parent="1">
          <mxGeometry x="450" y="80" width="150" height="20" as="geometry" />
        </mxCell>
        <mxCell id="PaBXmyS8WKfqIy4uAy_5-53" value="" style="edgeStyle=orthogonalEdgeStyle;rounded=0;orthogonalLoop=1;jettySize=auto;html=1;" edge="1" parent="1" source="PaBXmyS8WKfqIy4uAy_5-35" target="PaBXmyS8WKfqIy4uAy_5-37">
          <mxGeometry relative="1" as="geometry" />
        </mxCell>
        <mxCell id="PaBXmyS8WKfqIy4uAy_5-35" value="WorkQueue::workSchedule" style="rounded=0;whiteSpace=wrap;html=1;fillColor=#dae8fc;strokeColor=#6c8ebf;" vertex="1" parent="1">
          <mxGeometry x="450" y="120" width="150" height="20" as="geometry" />
        </mxCell>
        <mxCell id="PaBXmyS8WKfqIy4uAy_5-95" value="" style="edgeStyle=orthogonalEdgeStyle;rounded=0;orthogonalLoop=1;jettySize=auto;html=1;entryX=1;entryY=0.5;entryDx=0;entryDy=0;" edge="1" parent="1" source="PaBXmyS8WKfqIy4uAy_5-37" target="PaBXmyS8WKfqIy4uAy_5-42">
          <mxGeometry relative="1" as="geometry">
            <mxPoint x="610" y="50" as="targetPoint" />
            <Array as="points">
              <mxPoint x="620" y="170" />
              <mxPoint x="620" y="50" />
            </Array>
          </mxGeometry>
        </mxCell>
        <mxCell id="PaBXmyS8WKfqIy4uAy_5-37" value="Work::doWork" style="rounded=0;whiteSpace=wrap;html=1;fillColor=#dae8fc;strokeColor=#6c8ebf;" vertex="1" parent="1">
          <mxGeometry x="450" y="160" width="150" height="20" as="geometry" />
        </mxCell>
        <mxCell id="PaBXmyS8WKfqIy4uAy_5-51" style="edgeStyle=orthogonalEdgeStyle;rounded=0;orthogonalLoop=1;jettySize=auto;html=1;exitX=0.5;exitY=1;exitDx=0;exitDy=0;entryX=0.5;entryY=0;entryDx=0;entryDy=0;" edge="1" parent="1" source="PaBXmyS8WKfqIy4uAy_5-42" target="PaBXmyS8WKfqIy4uAy_5-33">
          <mxGeometry relative="1" as="geometry" />
        </mxCell>
        <mxCell id="PaBXmyS8WKfqIy4uAy_5-42" value="QThread::exec" style="rounded=0;whiteSpace=wrap;html=1;fillColor=#dae8fc;strokeColor=#6c8ebf;" vertex="1" parent="1">
          <mxGeometry x="450" y="40" width="150" height="20" as="geometry" />
        </mxCell>
        <mxCell id="PaBXmyS8WKfqIy4uAy_5-69" value="" style="shape=curlyBracket;whiteSpace=wrap;html=1;rounded=1;" vertex="1" parent="1">
          <mxGeometry x="60" y="40" width="20" height="160" as="geometry" />
        </mxCell>
        <mxCell id="PaBXmyS8WKfqIy4uAy_5-70" value="" style="shape=curlyBracket;whiteSpace=wrap;html=1;rounded=1;flipH=1;" vertex="1" parent="1">
          <mxGeometry x="250" y="40" width="20" height="160" as="geometry" />
        </mxCell>
        <mxCell id="PaBXmyS8WKfqIy4uAy_5-72" value="QPushButton::clicked" style="rounded=0;whiteSpace=wrap;html=1;fillColor=#dae8fc;strokeColor=#6c8ebf;" vertex="1" parent="1">
          <mxGeometry x="90" y="40" width="150" height="20" as="geometry" />
        </mxCell>
        <mxCell id="PaBXmyS8WKfqIy4uAy_5-81" value="" style="edgeStyle=orthogonalEdgeStyle;rounded=0;orthogonalLoop=1;jettySize=auto;html=1;" edge="1" parent="1" source="PaBXmyS8WKfqIy4uAy_5-74" target="PaBXmyS8WKfqIy4uAy_5-76">
          <mxGeometry relative="1" as="geometry" />
        </mxCell>
        <mxCell id="PaBXmyS8WKfqIy4uAy_5-74" value="WorkThread::addWork" style="rounded=0;whiteSpace=wrap;html=1;fillColor=#dae8fc;strokeColor=#6c8ebf;" vertex="1" parent="1">
          <mxGeometry x="90" y="80" width="150" height="20" as="geometry" />
        </mxCell>
        <mxCell id="PaBXmyS8WKfqIy4uAy_5-85" value="" style="edgeStyle=orthogonalEdgeStyle;rounded=0;orthogonalLoop=1;jettySize=auto;html=1;" edge="1" parent="1" source="PaBXmyS8WKfqIy4uAy_5-76" target="PaBXmyS8WKfqIy4uAy_5-82">
          <mxGeometry relative="1" as="geometry" />
        </mxCell>
        <mxCell id="PaBXmyS8WKfqIy4uAy_5-76" value="WorkQueue::addWork" style="rounded=0;whiteSpace=wrap;html=1;fillColor=#dae8fc;strokeColor=#6c8ebf;" vertex="1" parent="1">
          <mxGeometry x="90" y="120" width="150" height="20" as="geometry" />
        </mxCell>
        <mxCell id="PaBXmyS8WKfqIy4uAy_5-82" value="QCoreApplication::exec" style="rounded=0;whiteSpace=wrap;html=1;fillColor=#dae8fc;strokeColor=#6c8ebf;" vertex="1" parent="1">
          <mxGeometry x="90" y="160" width="150" height="20" as="geometry" />
        </mxCell>
        <mxCell id="PaBXmyS8WKfqIy4uAy_5-92" value="" style="edgeStyle=orthogonalEdgeStyle;rounded=0;orthogonalLoop=1;jettySize=auto;html=1;" edge="1" parent="1">
          <mxGeometry relative="1" as="geometry">
            <mxPoint x="169.71857142857135" y="60" as="sourcePoint" />
            <mxPoint x="169.71857142857135" y="80" as="targetPoint" />
          </mxGeometry>
        </mxCell>
        <mxCell id="PaBXmyS8WKfqIy4uAy_5-97" value="" style="shape=curlyBracket;whiteSpace=wrap;html=1;rounded=1;flipH=1;" vertex="1" parent="1">
          <mxGeometry x="626" y="40" width="20" height="160" as="geometry" />
        </mxCell>
        <mxCell id="PaBXmyS8WKfqIy4uAy_5-98" value="work_queue" style="rounded=1;whiteSpace=wrap;html=1;fillColor=#fff2cc;strokeColor=#d6b656;" vertex="1" parent="1">
          <mxGeometry x="533" y="280" width="76" height="30" as="geometry" />
        </mxCell>
        <mxCell id="PaBXmyS8WKfqIy4uAy_5-99" value="worker" style="rounded=1;whiteSpace=wrap;html=1;fillColor=#fff2cc;strokeColor=#d6b656;" vertex="1" parent="1">
          <mxGeometry x="450" y="330" width="76" height="30" as="geometry" />
        </mxCell>
        <mxCell id="PaBXmyS8WKfqIy4uAy_5-100" value="worker" style="rounded=1;whiteSpace=wrap;html=1;fillColor=#fff2cc;strokeColor=#d6b656;" vertex="1" parent="1">
          <mxGeometry x="526" y="330" width="76" height="30" as="geometry" />
        </mxCell>
        <mxCell id="PaBXmyS8WKfqIy4uAy_5-101" value="worker" style="rounded=1;whiteSpace=wrap;html=1;fillColor=#fff2cc;strokeColor=#d6b656;" vertex="1" parent="1">
          <mxGeometry x="602" y="330" width="76" height="30" as="geometry" />
        </mxCell>
        <mxCell id="PaBXmyS8WKfqIy4uAy_5-102" value="Main thread" style="text;html=1;strokeColor=none;fillColor=none;align=center;verticalAlign=middle;whiteSpace=wrap;rounded=0;" vertex="1" parent="1">
          <mxGeometry x="105" y="360" width="120" height="30" as="geometry" />
        </mxCell>
        <mxCell id="PaBXmyS8WKfqIy4uAy_5-103" value="Thread 1" style="text;html=1;strokeColor=none;fillColor=none;align=center;verticalAlign=middle;whiteSpace=wrap;rounded=0;" vertex="1" parent="1">
          <mxGeometry x="504" y="360" width="120" height="30" as="geometry" />
        </mxCell>
        <mxCell id="PaBXmyS8WKfqIy4uAy_5-106" value="" style="endArrow=classic;html=1;rounded=0;exitX=1;exitY=1;exitDx=0;exitDy=0;dashed=1;" edge="1" parent="1" source="PaBXmyS8WKfqIy4uAy_5-76" target="PaBXmyS8WKfqIy4uAy_5-18">
          <mxGeometry width="50" height="50" relative="1" as="geometry">
            <mxPoint x="410" y="270" as="sourcePoint" />
            <mxPoint x="460" y="220" as="targetPoint" />
          </mxGeometry>
        </mxCell>
      </root>
    </mxGraphModel>
  </diagram>
</mxfile>
